# 3ds Max Wavefront OBJ Exporter v0.97b - (c)2007 guruware
# File Created: 16.01.2014 00:33:14

mtllib Default.mtl

#
# object Fragment1
#

v  -0.5012 -0.5000 0.5000
v  -0.5012 -0.5000 -0.5000
v  0.4988 -0.5000 -0.5000
v  0.4988 -0.5000 0.5000
v  0.4988 0.0380 0.5000
v  -0.1537 -0.1559 0.5000
v  -0.5012 -0.2592 0.5000
v  0.4988 0.0201 -0.5000
v  0.4988 -0.2710 0.2687
v  -0.5012 0.0229 -0.5000
v  0.0469 -0.0526 -0.5000
v  -0.5012 -0.0696 -0.0652
# 12 vertices

vn 0.0000 -1.0000 -0.0000
vn 0.0000 0.0000 1.0000
vn 1.0000 0.0000 -0.0000
vn 0.0000 0.0000 -1.0000
vn -1.0000 0.0000 -0.0000
# 5 vertex normals

vt 1.0000 0.0000 0.0000
vt 1.0000 1.0000 0.0000
vt 0.0000 1.0000 0.0000
vt 0.0000 0.0000 0.0000
vt 1.0000 0.5435 0.0000
vt 0.3476 0.3476 0.0000
vt 0.0000 0.2432 0.0000
vt 1.0000 0.5253 0.0000
vt 0.2313 0.2313 0.0000
vt 0.0000 0.5435 0.0000
vt 1.0000 0.5282 0.0000
vt 0.4519 0.4519 0.0000
vt 0.0000 0.5253 0.0000
vt 1.0000 0.2432 0.0000
vt 0.4348 0.4348 0.0000
vt 0.0000 0.5282 0.0000
# 16 texture coords

g Fragment1
usemtl DefaultMtl
s 2
f 1/1/1 2/2/1 3/3/1 
f 3/3/1 4/4/1 1/1/1 
s 8
f 1/4/2 4/1/2 5/5/2 
f 5/5/2 6/6/2 1/4/2 
f 7/7/2 1/4/2 6/6/2 
s 16
f 4/4/3 3/1/3 8/8/3 
f 8/8/3 9/9/3 4/4/3 
f 5/10/3 4/4/3 9/9/3 
s 32
f 3/4/4 2/1/4 10/11/4 
f 10/11/4 11/12/4 3/4/4 
f 8/13/4 3/4/4 11/12/4 
s 64
f 7/14/5 12/15/5 2/4/5 
f 2/4/5 1/1/5 7/14/5 
f 10/16/5 2/4/5 12/15/5 
# 14 faces

#
# object Fragment
#

v  -0.5000 0.4900 0.5000
v  0.5000 0.4900 0.5000
v  0.5000 0.4900 -0.5000
v  -0.5000 0.4900 -0.5000
v  -0.5000 -0.2592 0.5000
v  -0.5000 -0.0696 -0.0652
v  -0.5000 0.0229 -0.5000
v  0.0481 -0.0526 -0.5000
v  0.5000 0.0201 -0.5000
v  0.5000 -0.2710 0.2687
v  0.5000 0.0380 0.5000
v  -0.1524 -0.1559 0.5000
# 12 vertices

vn 0.0000 1.0000 -0.0000
vn -1.0000 0.0000 -0.0000
vn 0.0000 0.0000 -1.0000
vn 1.0000 0.0000 -0.0000
vn 0.0000 0.0000 1.0000
# 5 vertex normals

vt 0.0000 0.0000 0.0000
vt 1.0000 0.0000 0.0000
vt 1.0000 1.0000 0.0000
vt 0.0000 1.0000 0.0000
vt 1.0000 0.2432 0.0000
vt 0.4348 0.4348 0.0000
vt 0.0000 0.5282 0.0000
vt 1.0000 0.5282 0.0000
vt 0.4519 0.4519 0.0000
vt 0.0000 0.5253 0.0000
vt 1.0000 0.5253 0.0000
vt 0.2313 0.2313 0.0000
vt 0.0000 0.5435 0.0000
vt 1.0000 0.5435 0.0000
vt 0.3476 0.3476 0.0000
vt 0.0000 0.2432 0.0000
# 16 texture coords

g Fragment
usemtl DefaultMtl
s 4
f 13/17/6 14/18/6 15/19/6 
f 15/19/6 16/20/6 13/17/6 
s 64
f 17/21/7 13/19/7 18/22/7 
f 18/22/7 13/19/7 16/20/7 
f 16/20/7 19/23/7 18/22/7 
s 32
f 19/24/8 16/19/8 20/25/8 
f 20/25/8 16/19/8 15/20/8 
f 15/20/8 21/26/8 20/25/8 
s 16
f 21/27/9 15/19/9 22/28/9 
f 22/28/9 15/19/9 14/20/9 
f 14/20/9 23/29/9 22/28/9 
s 8
f 23/30/10 14/19/10 24/31/10 
f 14/19/10 13/20/10 17/32/10 
f 17/32/10 24/31/10 14/19/10 
# 14 faces

