# 3ds Max Wavefront OBJ Exporter v0.97b - (c)2007 guruware
# File Created: 27.12.2013 16:28:29

mtllib plane.mtl

#
# object Plane
#

v  -0.5000 0.0000 0.3000
v  -0.5000 0.0000 0.5000
v  -0.3000 0.0000 0.3000
v  -0.3000 0.0000 0.5000
v  -0.1000 0.0000 0.3000
v  -0.1000 0.0000 0.5000
v  0.1000 0.0000 0.3000
v  0.1000 0.0000 0.5000
v  0.3000 0.0000 0.3000
v  0.3000 0.0000 0.5000
v  0.5000 0.0000 0.3000
v  0.5000 0.0000 0.5000
v  -0.5000 0.0000 0.1000
v  -0.3000 0.0000 0.1000
v  -0.1000 0.0000 0.1000
v  0.1000 0.0000 0.1000
v  0.3000 0.0000 0.1000
v  0.5000 0.0000 0.1000
v  -0.5000 0.0000 -0.1000
v  -0.3000 0.0000 -0.1000
v  -0.1000 0.0000 -0.1000
v  0.1000 0.0000 -0.1000
v  0.3000 0.0000 -0.1000
v  0.5000 0.0000 -0.1000
v  -0.5000 0.0000 -0.3000
v  -0.3000 0.0000 -0.3000
v  -0.1000 0.0000 -0.3000
v  0.1000 0.0000 -0.3000
v  0.3000 0.0000 -0.3000
v  0.5000 0.0000 -0.3000
v  -0.5000 0.0000 -0.5000
v  -0.3000 0.0000 -0.5000
v  -0.1000 0.0000 -0.5000
v  0.1000 0.0000 -0.5000
v  0.3000 0.0000 -0.5000
v  0.5000 0.0000 -0.5000
# 36 vertices

vn 0.0000 1.0000 -0.0000
# 1 vertex normals

vt 0.0000 0.2000 0.0000
vt 0.0000 0.0000 0.0000
vt 0.2000 0.2000 0.0000
vt 0.2000 0.0000 0.0000
vt 0.4000 0.2000 0.0000
vt 0.4000 0.0000 0.0000
vt 0.6000 0.2000 0.0000
vt 0.6000 0.0000 0.0000
vt 0.8000 0.2000 0.0000
vt 0.8000 0.0000 0.0000
vt 1.0000 0.2000 0.0000
vt 1.0000 0.0000 0.0000
vt 0.0000 0.4000 0.0000
vt 0.2000 0.4000 0.0000
vt 0.4000 0.4000 0.0000
vt 0.6000 0.4000 0.0000
vt 0.8000 0.4000 0.0000
vt 1.0000 0.4000 0.0000
vt 0.0000 0.6000 0.0000
vt 0.2000 0.6000 0.0000
vt 0.4000 0.6000 0.0000
vt 0.6000 0.6000 0.0000
vt 0.8000 0.6000 0.0000
vt 1.0000 0.6000 0.0000
vt 0.0000 0.8000 0.0000
vt 0.2000 0.8000 0.0000
vt 0.4000 0.8000 0.0000
vt 0.6000 0.8000 0.0000
vt 0.8000 0.8000 0.0000
vt 1.0000 0.8000 0.0000
vt 0.0000 1.0000 0.0000
vt 0.2000 1.0000 0.0000
vt 0.4000 1.0000 0.0000
vt 0.6000 1.0000 0.0000
vt 0.8000 1.0000 0.0000
vt 1.0000 1.0000 0.0000
# 36 texture coords

g Plane
usemtl DefaultMtl
s 1
f 1/1/1 2/2/1 3/3/1 
f 4/4/1 3/3/1 2/2/1 
f 3/3/1 4/4/1 5/5/1 
f 6/6/1 5/5/1 4/4/1 
f 5/5/1 6/6/1 7/7/1 
f 8/8/1 7/7/1 6/6/1 
f 7/7/1 8/8/1 9/9/1 
f 10/10/1 9/9/1 8/8/1 
f 9/9/1 10/10/1 11/11/1 
f 12/12/1 11/11/1 10/10/1 
f 13/13/1 1/1/1 14/14/1 
f 3/3/1 14/14/1 1/1/1 
f 14/14/1 3/3/1 15/15/1 
f 5/5/1 15/15/1 3/3/1 
f 15/15/1 5/5/1 16/16/1 
f 7/7/1 16/16/1 5/5/1 
f 16/16/1 7/7/1 17/17/1 
f 9/9/1 17/17/1 7/7/1 
f 17/17/1 9/9/1 18/18/1 
f 11/11/1 18/18/1 9/9/1 
f 19/19/1 13/13/1 20/20/1 
f 14/14/1 20/20/1 13/13/1 
f 20/20/1 14/14/1 21/21/1 
f 15/15/1 21/21/1 14/14/1 
f 21/21/1 15/15/1 22/22/1 
f 16/16/1 22/22/1 15/15/1 
f 22/22/1 16/16/1 23/23/1 
f 17/17/1 23/23/1 16/16/1 
f 23/23/1 17/17/1 24/24/1 
f 18/18/1 24/24/1 17/17/1 
f 25/25/1 19/19/1 26/26/1 
f 20/20/1 26/26/1 19/19/1 
f 26/26/1 20/20/1 27/27/1 
f 21/21/1 27/27/1 20/20/1 
f 27/27/1 21/21/1 28/28/1 
f 22/22/1 28/28/1 21/21/1 
f 28/28/1 22/22/1 29/29/1 
f 23/23/1 29/29/1 22/22/1 
f 29/29/1 23/23/1 30/30/1 
f 24/24/1 30/30/1 23/23/1 
f 31/31/1 25/25/1 32/32/1 
f 26/26/1 32/32/1 25/25/1 
f 32/32/1 26/26/1 33/33/1 
f 27/27/1 33/33/1 26/26/1 
f 33/33/1 27/27/1 34/34/1 
f 28/28/1 34/34/1 27/27/1 
f 34/34/1 28/28/1 35/35/1 
f 29/29/1 35/35/1 28/28/1 
f 35/35/1 29/29/1 36/36/1 
f 30/30/1 36/36/1 29/29/1 
# 50 faces

